<?xml version="1.0" standalone="no"?>
<!DOCTYPE svg PUBLIC "-//W3C//DTD SVG 20010904//EN"
 "http://www.w3.org/TR/2001/REC-SVG-20010904/DTD/svg10.dtd">
<svg version="1.0" xmlns="http://www.w3.org/2000/svg"
 width="232.000000pt" height="218.000000pt" viewBox="0 0 232.000000 218.000000"
 preserveAspectRatio="xMidYMid meet">

<g transform="translate(0.000000,218.000000) scale(0.100000,-0.100000)"
fill="#000000" stroke="none">
<path d="M0 1437 l0 -742 61 -33 c74 -41 251 -175 424 -322 214 -182 345 -265
495 -312 110 -34 273 -32 385 5 147 49 264 126 510 337 166 142 308 250 385
292 l60 33 0 742 0 742 -72 -31 c-375 -158 -712 -345 -970 -538 l-118 -88
-117 88 c-259 193 -596 380 -970 538 l-73 31 0 -742z m181 572 c247 -108 539
-271 719 -400 130 -93 148 -109 130 -109 -8 0 -46 -16 -83 -34 l-68 -35 -107
73 c-155 106 -280 177 -498 283 l-194 94 0 84 c0 47 2 85 5 85 2 0 46 -18 96
-41z m2059 -49 c0 -60 -4 -90 -11 -90 -19 0 -371 -174 -476 -235 -54 -32 -146
-91 -205 -131 l-107 -73 -68 35 c-37 18 -75 34 -83 34 -18 0 0 16 130 109 130
93 317 204 490 291 150 75 309 149 323 150 4 0 7 -40 7 -90z m-2003 -256 c153
-71 293 -151 446 -251 l128 -84 -29 -37 c-16 -20 -35 -48 -42 -62 -7 -14 -14
-26 -15 -28 -1 -1 -38 22 -81 51 -120 82 -261 162 -420 239 l-144 69 0 85 c0
101 -15 99 157 18z m2003 -19 l0 -84 -144 -69 c-159 -77 -300 -157 -420 -239
-43 -29 -80 -52 -81 -51 -1 2 -8 14 -15 28 -7 14 -26 42 -42 62 l-29 37 128
84 c70 46 175 110 233 142 100 56 347 175 363 175 4 0 7 -38 7 -85z m-2056
-236 c120 -54 266 -136 397 -222 l107 -70 -2 -94 c0 -51 -2 -93 -3 -93 -2 0
-33 22 -70 49 -116 85 -243 160 -390 232 l-143 71 0 84 c0 46 3 84 6 84 4 0
47 -18 98 -41z m2056 -43 l0 -84 -142 -71 c-148 -72 -275 -147 -391 -232 -37
-27 -68 -49 -70 -49 -1 0 -3 42 -3 94 l-2 94 107 70 c163 107 446 259 489 261
9 1 12 -22 12 -83z m-1027 -86 l49 -140 96 -1 c54 -1 121 -4 151 -7 l55 -7
-117 -88 c-64 -48 -117 -92 -117 -98 0 -6 18 -70 40 -143 22 -73 40 -135 40
-139 0 -3 -54 32 -120 79 -66 46 -125 84 -130 84 -5 0 -64 -38 -130 -84 -66
-47 -120 -82 -120 -79 0 4 18 66 40 139 22 73 40 137 40 143 0 6 -53 50 -117
98 l-117 88 55 7 c30 3 97 6 151 7 l96 1 49 140 c26 77 50 140 53 140 3 0 27
-63 53 -140z m-998 -169 c206 -100 320 -183 544 -396 165 -156 225 -187 381
-193 192 -8 251 21 457 219 154 148 248 223 370 296 73 43 253 133 267 133 3
0 6 -40 6 -88 l0 -88 -35 -17 c-137 -65 -342 -212 -515 -369 -207 -187 -265
-225 -387 -254 -49 -12 -96 -15 -168 -11 -172 9 -258 52 -460 233 -196 175
-326 271 -500 369 l-90 51 -3 87 c-1 48 1 87 5 87 4 0 62 -26 128 -59z m-55
-256 c137 -69 273 -169 470 -344 129 -115 207 -174 282 -212 152 -77 352 -78
501 -3 74 38 136 84 267 203 146 132 244 211 345 276 72 47 196 115 210 115 3
0 5 -38 5 -84 l0 -84 -72 -43 c-101 -59 -186 -124 -378 -290 -309 -266 -466
-343 -670 -324 -182 16 -312 89 -608 343 -166 142 -257 211 -359 271 l-73 43
0 84 c0 46 2 84 5 84 3 0 37 -16 75 -35z"/>
<path d="M1087 1129 c-15 -11 -31 -38 -37 -60 -29 -107 96 -187 184 -118 52
41 52 137 -1 179 -35 28 -111 27 -146 -1z"/>
</g>
</svg>
