<?xml version="1.0" standalone="no"?>
<!DOCTYPE svg PUBLIC "-//W3C//DTD SVG 20010904//EN"
 "http://www.w3.org/TR/2001/REC-SVG-20010904/DTD/svg10.dtd">
<svg version="1.0" xmlns="http://www.w3.org/2000/svg"
 width="500.000000pt" height="500.000000pt" viewBox="0 0 500.000000 500.000000"
 preserveAspectRatio="xMidYMid meet">

<g transform="translate(0.000000,500.000000) scale(0.100000,-0.100000)"
fill="#000000" stroke="none">
<path d="M2360 4355 c-69 -18 -186 -49 -260 -68 -128 -34 -226 -60 -350 -93
-30 -9 -95 -26 -145 -39 -49 -13 -124 -32 -165 -43 -41 -11 -156 -41 -255 -67
-99 -26 -204 -53 -233 -62 l-54 -15 5 -706 c5 -750 4 -736 56 -939 92 -360
331 -718 711 -1065 198 -181 398 -329 758 -561 l72 -47 73 46 c407 261 670
465 901 699 344 348 519 665 603 1088 14 70 17 188 20 785 3 386 2 702 0 702
-5 0 -246 63 -382 100 -44 12 -123 33 -175 47 -99 26 -189 49 -315 83 -41 11
-108 29 -147 39 -40 11 -127 34 -193 51 -242 65 -380 100 -390 99 -5 -1 -66
-16 -135 -34z m-840 -1162 l5 -303 74 138 c41 75 108 202 149 282 110 213 82
190 222 190 66 0 120 -3 120 -8 0 -11 -166 -334 -274 -532 -75 -137 -71 -119
-40 -186 15 -32 89 -187 165 -343 77 -156 139 -286 139 -288 0 -2 -57 -2 -126
-1 l-126 3 -152 296 -151 297 -3 -299 -2 -299 -120 0 -120 0 0 680 0 681 118
-3 117 -3 5 -302z m1320 -205 c0 -294 -4 -541 -10 -578 -15 -99 -64 -186 -127
-229 -72 -49 -116 -61 -231 -61 -173 0 -273 53 -333 178 -18 39 -23 69 -27
170 l-4 122 116 0 116 0 0 -86 c0 -58 5 -97 16 -119 40 -85 188 -85 228 0 14
29 16 101 16 567 0 294 3 538 7 541 3 4 57 7 120 7 l113 0 0 -512z m744 482
c68 -26 122 -76 156 -145 24 -48 25 -57 25 -255 -1 -227 -7 -256 -74 -332 -55
-63 -115 -81 -286 -88 l-150 -5 -3 -252 -2 -253 -115 0 -115 0 0 681 0 681
253 -4 c232 -5 257 -7 311 -28z"/>
<path d="M3250 3060 l0 -233 100 6 c88 4 105 8 135 31 44 34 55 74 55 203 0
182 -27 214 -192 221 l-98 4 0 -232z"/>
</g>
</svg>
